# 3ds Max Wavefront OBJ Exporter v0.99 - (c)2007 guruware
# File Created: 05.07.2024 15:30:08

mtllib 通风系统\主通风\#1通风机风流线.mtl

#
# shape _1通风机风流线
#

v  35.0626 8.4174 -4.2479
v  34.5270 7.4190 -4.2479
v  33.9534 6.4206 -4.2479
v  33.3037 5.4222 -4.2479
v  32.5397 4.4238 -4.2479
v  31.6236 3.4254 -4.2479
v  31.0840 2.9855 -4.2479
v  30.4749 2.6619 -4.2479
v  29.8147 2.4622 -4.2479
v  29.1218 2.3939 -4.2479
v  -8.9024 2.3939 -4.2479
v  -14.8222 2.3939 0.0373
v  -16.0886 2.3939 0.0373
# 13 vertices

o _1通风机风流线
g _1通风机风流线
usemtl wire_154154229
l 1 2 3 4 5 6 7 8 9 10 11 12 13

